<svg width="357" height="65" viewBox="0 0 357 65" fill="none" xmlns="http://www.w3.org/2000/svg">
<g clip-path="url(#clip0_146_387)">
<path d="M66.547 0H58.3145V41.1626H66.547V0Z" fill="white"/>
<path d="M87.1094 41.8083V38.4185H60.3718V41.8083H87.1094Z" fill="white"/>
<path d="M301.859 0H293.627V41.1626H301.859V0Z" fill="white"/>
<path d="M271.673 0H263.44V41.1626H271.673V0Z" fill="white"/>
<path d="M293.632 22.0341V18.6443H266.894V22.0341H293.632Z" fill="white"/>
<path d="M350.092 40.9205H356.502V14.8912C356.502 10.9291 356.261 0.242188 338.556 0.242188C320.852 0.242188 320.852 11.1691 320.852 14.8912V40.9205H327.105V14.8912C327.105 11.409 327.105 3.48204 338.556 3.48204C350.092 3.48204 350.092 11.3997 350.092 14.885V14.8912V40.9205Z" fill="white" stroke="white" stroke-width="2.05813"/>
<path d="M29.4806 40.9205H35.8914V14.8912C35.8914 10.9291 35.6505 0.242188 17.9459 0.242188C0.241211 0.242188 0.241211 11.1691 0.241211 14.8912V40.9205H6.49562V14.8912C6.49562 11.409 6.49562 3.48204 17.9459 3.48204C29.4806 3.48204 29.4806 11.3997 29.4806 14.885V14.8912V40.9205Z" fill="white" stroke="white" stroke-width="2.05813"/>
<path d="M162.259 0.242188H155.849V26.2715C155.849 30.2337 156.09 40.9205 173.794 40.9205C191.499 40.9205 191.499 29.9935 191.499 26.2715V0.242192L185.244 0.24219V26.2715C185.244 29.7536 185.244 37.6805 173.794 37.6805C162.259 37.6805 162.259 29.763 162.259 26.2775V26.2715V0.242188Z" fill="white" stroke="white" stroke-width="2.05813"/>
<path d="M242.212 5.32772V0.242929L225.563 0.242932C220.498 0.242932 212.215 -0.0595689 212.215 11.5325C212.215 23.1245 220.119 23.1245 224.877 23.1245H233.924V18.0397H224.877C220.426 18.0397 216.139 18.0397 216.139 11.5325C216.139 5.32772 220.958 5.32772 225.563 5.32772H242.212Z" fill="white"/>
<path d="M214.738 35.8363V40.9211H231.386C236.451 40.9211 244.734 41.2235 244.734 29.6316C244.734 18.0396 236.83 18.0396 232.072 18.0396H223.025V23.1243H232.072C236.523 23.1243 240.809 23.1243 240.809 29.6316C240.809 35.8363 235.991 35.8363 231.386 35.8363H214.738Z" fill="white"/>
<path d="M132.61 5.32772V0.242929L115.962 0.242932C110.897 0.242932 102.614 -0.0595685 102.614 11.5325C102.614 23.1245 110.518 23.1245 115.276 23.1245H124.324V18.0397H115.276C110.825 18.0397 108.394 15.7588 108.394 11.5325C108.394 7.30607 111.357 5.32772 115.962 5.32772H132.61Z" fill="white"/>
<path d="M105.138 35.8363V40.9211H121.786C126.85 40.9211 135.133 41.2235 135.133 29.6316C135.133 18.0396 127.229 18.0396 122.471 18.0396H113.424V23.1243H122.471C126.923 23.1243 131.209 23.1243 131.209 29.6316C131.209 35.8363 126.39 35.8363 121.786 35.8363H105.138Z" fill="white"/>
</g>
<path d="M124.26 52.4634C124.26 53.2769 124.537 53.9229 125.091 54.4014C125.645 54.873 126.386 55.2388 127.316 55.4985L128.157 55.7241C128.875 55.9224 129.387 56.1616 129.695 56.4419C130.009 56.7153 130.167 57.0845 130.167 57.5493C130.167 58.0278 129.968 58.4243 129.572 58.7388C129.175 59.0464 128.639 59.2002 127.962 59.2002C127.47 59.2002 127.005 59.1079 126.567 58.9233C126.13 58.7388 125.757 58.4551 125.45 58.0723C125.149 57.6895 124.934 57.2109 124.804 56.6367H124.147L124.229 59.2617C124.482 59.4258 124.797 59.5796 125.173 59.7231C125.556 59.8599 125.983 59.9692 126.455 60.0513C126.926 60.1401 127.432 60.1846 127.972 60.1846C128.704 60.1846 129.37 60.0615 129.972 59.8154C130.58 59.5693 131.065 59.2207 131.428 58.7695C131.79 58.3184 131.971 57.7886 131.971 57.1802C131.971 56.3394 131.705 55.6763 131.171 55.1909C130.638 54.6987 129.896 54.3193 128.946 54.0527L128.126 53.8271C127.477 53.6494 126.967 53.4341 126.598 53.1812C126.236 52.9214 126.055 52.5557 126.055 52.084C126.055 51.6055 126.25 51.2329 126.639 50.9663C127.036 50.6929 127.555 50.5562 128.198 50.5562C128.881 50.5562 129.469 50.7544 129.961 51.1509C130.46 51.5405 130.782 52.1182 130.925 52.8838H131.582L131.51 50.3306C131.216 50.1323 130.785 49.958 130.218 49.8076C129.65 49.6504 128.974 49.5718 128.188 49.5718C127.401 49.5718 126.711 49.688 126.116 49.9204C125.528 50.146 125.07 50.4741 124.742 50.9048C124.421 51.3354 124.26 51.855 124.26 52.4634ZM133.991 54.9551C133.991 56.0488 134.213 56.9888 134.658 57.7749C135.102 58.561 135.704 59.166 136.462 59.5898C137.228 60.0068 138.089 60.2153 139.046 60.2153C139.915 60.2153 140.677 60.0752 141.333 59.7949C141.996 59.5146 142.509 59.1558 142.871 58.7183V58.0005C142.557 58.3013 142.153 58.5405 141.661 58.7183C141.176 58.896 140.67 58.9849 140.144 58.9849C139.31 58.9849 138.585 58.7935 137.97 58.4106C137.361 58.0278 136.886 57.4912 136.544 56.8008C136.209 56.1104 136.042 55.3003 136.042 54.3706C136.042 53.0786 136.298 52.1216 136.811 51.4995C137.324 50.8706 137.99 50.5562 138.811 50.5562C139.316 50.5562 139.744 50.6792 140.092 50.9253C140.441 51.1714 140.704 51.5303 140.882 52.002C141.066 52.4668 141.159 53.0376 141.159 53.7144C141.159 53.7896 141.159 53.8545 141.159 53.9092C141.159 53.9639 141.159 54.022 141.159 54.0835L141.415 53.7964H135.099V54.627H143.076C143.097 54.4424 143.107 54.2168 143.107 53.9502C143.107 53.0547 142.943 52.2788 142.615 51.6226C142.287 50.9663 141.805 50.4639 141.169 50.1152C140.533 49.7598 139.757 49.582 138.841 49.582C137.884 49.582 137.04 49.811 136.309 50.269C135.584 50.7202 135.017 51.3525 134.606 52.166C134.196 52.9727 133.991 53.9023 133.991 54.9551ZM145.824 51.6738L150.849 58.0312C151.108 58.3525 151.255 58.5952 151.29 58.7593C151.324 58.9233 151.238 59.043 151.033 59.1182C150.828 59.1865 150.49 59.2412 150.018 59.2822V60H154.971V59.2822C154.54 59.2002 154.205 59.0806 153.966 58.9233C153.733 58.7661 153.446 58.4722 153.104 58.0415L148.07 51.6841C147.728 51.2534 147.612 50.9629 147.721 50.8125C147.837 50.6621 148.251 50.5596 148.962 50.5049V49.7871H144.081V50.5049C144.491 50.5869 144.802 50.7031 145.014 50.8535C145.233 50.9971 145.503 51.2705 145.824 51.6738ZM152.643 52.043C152.937 51.6738 153.18 51.3901 153.371 51.1919C153.562 50.9937 153.768 50.8433 153.986 50.7407C154.205 50.6382 154.499 50.5596 154.868 50.5049V49.7871H150.838V50.5049C151.303 50.5459 151.635 50.604 151.833 50.6792C152.031 50.7544 152.113 50.8706 152.079 51.0278C152.052 51.1782 151.929 51.397 151.71 51.6841L149.618 54.3604L148.726 54.6782L146.409 57.6313C146.108 58.021 145.852 58.3252 145.64 58.5439C145.428 58.7627 145.202 58.9268 144.963 59.0361C144.724 59.1387 144.409 59.2207 144.02 59.2822V60H148.131V59.2822C147.482 59.2207 147.096 59.1113 146.973 58.9541C146.856 58.79 146.983 58.4585 147.352 57.9595L149.28 55.3857L150.285 54.9448L152.643 52.043ZM156.929 52.1455L160.077 59.877C159.804 60.417 159.51 60.981 159.195 61.5688C158.888 62.1636 158.583 62.731 158.283 63.271C157.989 63.811 157.729 64.2793 157.503 64.6758V64.7168H159.318L161.021 60L161.79 58.1338L164.22 52.2173C164.418 51.7456 164.589 51.397 164.732 51.1714C164.876 50.9458 165.043 50.792 165.235 50.71C165.433 50.6211 165.703 50.5527 166.045 50.5049V49.7871H162.077V50.5049C162.535 50.5459 162.873 50.6108 163.092 50.6997C163.317 50.7886 163.437 50.939 163.451 51.1509C163.471 51.356 163.403 51.6533 163.246 52.043L160.867 58.1338H161.287L159 52.0327C158.789 51.4517 158.758 51.0688 158.908 50.8843C159.065 50.6997 159.489 50.5732 160.18 50.5049V49.7871H155.176V50.5049C155.504 50.5732 155.764 50.6587 155.955 50.7612C156.153 50.8569 156.324 51.0107 156.468 51.2227C156.611 51.4346 156.765 51.7422 156.929 52.1455ZM182.759 54.7705C182.759 53.6836 182.564 52.7505 182.174 51.9712C181.785 51.1919 181.269 50.5972 180.626 50.187C179.99 49.7769 179.3 49.5718 178.555 49.5718C177.803 49.5718 177.109 49.7427 176.473 50.0845C175.844 50.4194 175.39 50.8569 175.109 51.397V49.6743L171.674 50.0845V50.7202L172.464 50.915C172.765 50.9834 172.953 51.0723 173.028 51.1816C173.103 51.2842 173.141 51.4722 173.141 51.7456V63.0967C173.141 63.4043 173.059 63.6128 172.895 63.7222C172.737 63.8384 172.331 63.9307 171.674 63.999V64.7168H176.791V63.999C176.299 63.958 175.937 63.9033 175.704 63.835C175.472 63.7734 175.321 63.6777 175.253 63.5479C175.185 63.418 175.15 63.2266 175.15 62.9736V59.1387C175.451 59.4463 175.837 59.7026 176.309 59.9077C176.781 60.1128 177.307 60.2153 177.888 60.2153C178.797 60.2153 179.618 59.9863 180.349 59.5283C181.087 59.0703 181.672 58.4346 182.103 57.6211C182.54 56.8008 182.759 55.8506 182.759 54.7705ZM180.657 54.9653C180.657 55.8403 180.52 56.5957 180.247 57.2314C179.973 57.8672 179.597 58.3594 179.119 58.708C178.64 59.0498 178.09 59.2207 177.468 59.2207C176.914 59.2207 176.432 59.1147 176.022 58.9028C175.619 58.6841 175.328 58.4209 175.15 58.1133V52.0327C175.369 51.6362 175.687 51.332 176.104 51.1201C176.521 50.9082 177 50.8022 177.54 50.8022C178.168 50.8022 178.715 50.9697 179.18 51.3047C179.652 51.6396 180.014 52.1182 180.267 52.7402C180.527 53.3623 180.657 54.104 180.657 54.9653ZM187.917 44.7729L184.44 45.1934V45.8188L185.23 46.0137C185.517 46.0889 185.702 46.1777 185.784 46.2803C185.866 46.3828 185.907 46.5708 185.907 46.8442V58.3696C185.907 58.6841 185.825 58.8994 185.661 59.0156C185.503 59.125 185.097 59.2139 184.44 59.2822V60H189.291V59.2822C188.675 59.2139 188.292 59.1284 188.142 59.0259C187.992 58.9165 187.917 58.7114 187.917 58.4106V51.9712C188.115 51.6499 188.419 51.3765 188.829 51.1509C189.239 50.9185 189.742 50.8022 190.336 50.8022C191.088 50.8022 191.68 51.021 192.11 51.4585C192.548 51.896 192.767 52.5386 192.767 53.3862V58.4106C192.767 58.7114 192.691 58.9165 192.541 59.0259C192.397 59.1284 192.018 59.2139 191.403 59.2822V60H196.253V59.2822C195.597 59.2139 195.187 59.125 195.022 59.0156C194.865 58.8994 194.787 58.6841 194.787 58.3696V52.8428C194.787 51.7969 194.458 50.9902 193.802 50.4229C193.146 49.8555 192.292 49.5718 191.239 49.5718C190.466 49.5718 189.793 49.7256 189.219 50.0332C188.651 50.3408 188.217 50.7305 187.917 51.2021V44.7729ZM202.887 60.2153C203.885 60.2153 204.781 59.9897 205.574 59.5386C206.374 59.0806 207.006 58.4517 207.471 57.6519C207.936 56.8452 208.168 55.9121 208.168 54.8525C208.168 53.8135 207.942 52.8975 207.491 52.1045C207.04 51.3047 206.428 50.6826 205.656 50.2383C204.883 49.7939 204.012 49.5718 203.041 49.5718C202.043 49.5718 201.144 49.8008 200.344 50.2588C199.551 50.71 198.922 51.3389 198.458 52.1455C198 52.9453 197.771 53.875 197.771 54.9346C197.771 55.9736 197.996 56.8931 198.447 57.6929C198.898 58.4858 199.51 59.1045 200.283 59.5488C201.055 59.9932 201.923 60.2153 202.887 60.2153ZM203.041 59.2412C202.439 59.2412 201.906 59.0566 201.441 58.6875C200.977 58.3184 200.611 57.7988 200.344 57.1289C200.078 56.4521 199.944 55.6592 199.944 54.75C199.944 53.8818 200.061 53.1367 200.293 52.5146C200.525 51.8857 200.86 51.4038 201.298 51.0688C201.735 50.7271 202.265 50.5562 202.887 50.5562C203.489 50.5562 204.019 50.7407 204.477 51.1099C204.941 51.4722 205.307 51.9917 205.574 52.6685C205.847 53.3384 205.984 54.1313 205.984 55.0474C205.984 55.9087 205.868 56.6538 205.635 57.2827C205.403 57.9048 205.064 58.3867 204.62 58.7285C204.183 59.0703 203.656 59.2412 203.041 59.2412ZM211.111 57.1084C211.111 57.8672 211.241 58.4756 211.5 58.9336C211.767 59.3848 212.112 59.7129 212.536 59.918C212.96 60.1162 213.432 60.2153 213.951 60.2153C214.505 60.2153 215.007 60.1299 215.458 59.959C215.91 59.7881 216.245 59.5762 216.463 59.3232V58.6055C216.286 58.7285 216.07 58.8276 215.817 58.9028C215.564 58.9712 215.298 59.0054 215.018 59.0054C214.478 59.0054 214.026 58.8447 213.664 58.5234C213.302 58.1953 213.121 57.5903 213.121 56.7085V50.751L216.299 50.8022V49.7871L213.121 49.8589V47.8696H212.792L209.727 50.3101V50.8022H211.111V57.1084ZM222.616 60.2153C223.614 60.2153 224.509 59.9897 225.302 59.5386C226.102 59.0806 226.734 58.4517 227.199 57.6519C227.664 56.8452 227.896 55.9121 227.896 54.8525C227.896 53.8135 227.671 52.8975 227.22 52.1045C226.769 51.3047 226.157 50.6826 225.384 50.2383C224.612 49.7939 223.74 49.5718 222.77 49.5718C221.771 49.5718 220.873 49.8008 220.073 50.2588C219.28 50.71 218.651 51.3389 218.186 52.1455C217.728 52.9453 217.499 53.875 217.499 54.9346C217.499 55.9736 217.725 56.8931 218.176 57.6929C218.627 58.4858 219.239 59.1045 220.011 59.5488C220.784 59.9932 221.652 60.2153 222.616 60.2153ZM222.77 59.2412C222.168 59.2412 221.635 59.0566 221.17 58.6875C220.705 58.3184 220.339 57.7988 220.073 57.1289C219.806 56.4521 219.673 55.6592 219.673 54.75C219.673 53.8818 219.789 53.1367 220.021 52.5146C220.254 51.8857 220.589 51.4038 221.026 51.0688C221.464 50.7271 221.994 50.5562 222.616 50.5562C223.217 50.5562 223.747 50.7407 224.205 51.1099C224.67 51.4722 225.036 51.9917 225.302 52.6685C225.576 53.3384 225.712 54.1313 225.712 55.0474C225.712 55.9087 225.596 56.6538 225.364 57.2827C225.131 57.9048 224.793 58.3867 224.349 58.7285C223.911 59.0703 223.385 59.2412 222.77 59.2412ZM230.06 52.4634C230.06 53.2769 230.337 53.9229 230.891 54.4014C231.444 54.873 232.186 55.2388 233.116 55.4985L233.957 55.7241C234.674 55.9224 235.187 56.1616 235.495 56.4419C235.809 56.7153 235.966 57.0845 235.966 57.5493C235.966 58.0278 235.768 58.4243 235.372 58.7388C234.975 59.0464 234.438 59.2002 233.762 59.2002C233.27 59.2002 232.805 59.1079 232.367 58.9233C231.93 58.7388 231.557 58.4551 231.25 58.0723C230.949 57.6895 230.733 57.2109 230.604 56.6367H229.947L230.029 59.2617C230.282 59.4258 230.597 59.5796 230.973 59.7231C231.355 59.8599 231.783 59.9692 232.254 60.0513C232.726 60.1401 233.232 60.1846 233.772 60.1846C234.503 60.1846 235.17 60.0615 235.771 59.8154C236.38 59.5693 236.865 59.2207 237.228 58.7695C237.59 58.3184 237.771 57.7886 237.771 57.1802C237.771 56.3394 237.504 55.6763 236.971 55.1909C236.438 54.6987 235.696 54.3193 234.746 54.0527L233.926 53.8271C233.276 53.6494 232.767 53.4341 232.398 53.1812C232.036 52.9214 231.854 52.5557 231.854 52.084C231.854 51.6055 232.049 51.2329 232.439 50.9663C232.835 50.6929 233.355 50.5562 233.998 50.5562C234.681 50.5562 235.269 50.7544 235.761 51.1509C236.26 51.5405 236.582 52.1182 236.725 52.8838H237.381L237.31 50.3306C237.016 50.1323 236.585 49.958 236.018 49.8076C235.45 49.6504 234.773 49.5718 233.987 49.5718C233.201 49.5718 232.511 49.688 231.916 49.9204C231.328 50.146 230.87 50.4741 230.542 50.9048C230.221 51.3354 230.06 51.855 230.06 52.4634ZM249.973 60.2153C250.971 60.2153 251.867 59.9897 252.66 59.5386C253.459 59.0806 254.092 58.4517 254.557 57.6519C255.021 56.8452 255.254 55.9121 255.254 54.8525C255.254 53.8135 255.028 52.8975 254.577 52.1045C254.126 51.3047 253.514 50.6826 252.742 50.2383C251.969 49.7939 251.098 49.5718 250.127 49.5718C249.129 49.5718 248.23 49.8008 247.43 50.2588C246.637 50.71 246.008 51.3389 245.543 52.1455C245.085 52.9453 244.856 53.875 244.856 54.9346C244.856 55.9736 245.082 56.8931 245.533 57.6929C245.984 58.4858 246.596 59.1045 247.369 59.5488C248.141 59.9932 249.009 60.2153 249.973 60.2153ZM250.127 59.2412C249.525 59.2412 248.992 59.0566 248.527 58.6875C248.062 58.3184 247.697 57.7988 247.43 57.1289C247.164 56.4521 247.03 55.6592 247.03 54.75C247.03 53.8818 247.146 53.1367 247.379 52.5146C247.611 51.8857 247.946 51.4038 248.384 51.0688C248.821 50.7271 249.351 50.5562 249.973 50.5562C250.575 50.5562 251.104 50.7407 251.562 51.1099C252.027 51.4722 252.393 51.9917 252.66 52.6685C252.933 53.3384 253.07 54.1313 253.07 55.0474C253.07 55.9087 252.954 56.6538 252.721 57.2827C252.489 57.9048 252.15 58.3867 251.706 58.7285C251.269 59.0703 250.742 59.2412 250.127 59.2412ZM260.412 58.2568V50.751L263.365 50.8022V49.7871L260.412 49.8384V47.7363C260.412 47.0254 260.531 46.4956 260.771 46.147C261.01 45.7983 261.348 45.624 261.786 45.624C262.08 45.624 262.322 45.7061 262.514 45.8701C262.712 46.0273 262.835 46.2051 262.883 46.4033H263.539C263.539 46.1367 263.454 45.9146 263.283 45.7368C263.112 45.5591 262.91 45.4702 262.678 45.4702C262.432 45.4702 262.216 45.5591 262.032 45.7368C261.854 45.9146 261.765 46.1367 261.765 46.4033C261.765 46.6836 261.854 46.9194 262.032 47.1108C262.216 47.2954 262.452 47.3877 262.739 47.3877C263.006 47.3877 263.231 47.292 263.416 47.1006C263.607 46.9092 263.703 46.6768 263.703 46.4033C263.703 45.9521 263.512 45.5591 263.129 45.2241C262.753 44.8892 262.209 44.7217 261.499 44.7217C260.863 44.7217 260.312 44.8618 259.848 45.1421C259.383 45.4155 259.024 45.8257 258.771 46.3726C258.525 46.9126 258.402 47.5859 258.402 48.3926V49.7871L256.936 50.3101V50.8022H258.402V58.3799C258.402 58.6875 258.32 58.8994 258.156 59.0156C257.999 59.125 257.592 59.2139 256.936 59.2822V60H262.032V59.2822C261.546 59.2412 261.188 59.1899 260.955 59.1284C260.723 59.0601 260.572 58.9609 260.504 58.8311C260.442 58.7012 260.412 58.5098 260.412 58.2568ZM270.399 52.1455L273.547 59.877C273.273 60.417 272.979 60.981 272.665 61.5688C272.357 62.1636 272.053 62.731 271.752 63.271C271.458 63.811 271.199 64.2793 270.973 64.6758V64.7168H272.788L274.49 60L275.259 58.1338L277.689 52.2173C277.888 51.7456 278.059 51.397 278.202 51.1714C278.346 50.9458 278.513 50.792 278.705 50.71C278.903 50.6211 279.173 50.5527 279.515 50.5049V49.7871H275.546V50.5049C276.004 50.5459 276.343 50.6108 276.562 50.6997C276.787 50.7886 276.907 50.939 276.92 51.1509C276.941 51.356 276.873 51.6533 276.715 52.043L274.336 58.1338H274.757L272.47 52.0327C272.258 51.4517 272.228 51.0688 272.378 50.8843C272.535 50.6997 272.959 50.5732 273.649 50.5049V49.7871H268.646V50.5049C268.974 50.5732 269.233 50.6587 269.425 50.7612C269.623 50.8569 269.794 51.0107 269.938 51.2227C270.081 51.4346 270.235 51.7422 270.399 52.1455ZM284.959 60.2153C285.958 60.2153 286.853 59.9897 287.646 59.5386C288.446 59.0806 289.078 58.4517 289.543 57.6519C290.008 56.8452 290.24 55.9121 290.24 54.8525C290.24 53.8135 290.015 52.8975 289.563 52.1045C289.112 51.3047 288.5 50.6826 287.728 50.2383C286.956 49.7939 286.084 49.5718 285.113 49.5718C284.115 49.5718 283.216 49.8008 282.417 50.2588C281.624 50.71 280.995 51.3389 280.53 52.1455C280.072 52.9453 279.843 53.875 279.843 54.9346C279.843 55.9736 280.068 56.8931 280.52 57.6929C280.971 58.4858 281.583 59.1045 282.355 59.5488C283.127 59.9932 283.996 60.2153 284.959 60.2153ZM285.113 59.2412C284.512 59.2412 283.979 59.0566 283.514 58.6875C283.049 58.3184 282.683 57.7988 282.417 57.1289C282.15 56.4521 282.017 55.6592 282.017 54.75C282.017 53.8818 282.133 53.1367 282.365 52.5146C282.598 51.8857 282.933 51.4038 283.37 51.0688C283.808 50.7271 284.337 50.5562 284.959 50.5562C285.561 50.5562 286.091 50.7407 286.549 51.1099C287.014 51.4722 287.379 51.9917 287.646 52.6685C287.919 53.3384 288.056 54.1313 288.056 55.0474C288.056 55.9087 287.94 56.6538 287.708 57.2827C287.475 57.9048 287.137 58.3867 286.692 58.7285C286.255 59.0703 285.729 59.2412 285.113 59.2412ZM295.121 49.6743L291.645 50.0845V50.7202L292.435 50.915C292.722 50.9834 292.906 51.0723 292.988 51.1816C293.07 51.2842 293.111 51.4722 293.111 51.7456V56.8726C293.111 57.9458 293.433 58.7729 294.075 59.354C294.725 59.9282 295.562 60.2153 296.587 60.2153C297.367 60.2153 298.037 60.0547 298.597 59.7334C299.165 59.4121 299.595 59.0088 299.889 58.5234V60.1128L303.334 59.6924V59.0669L302.555 58.8721C302.261 58.7969 302.073 58.708 301.991 58.6055C301.909 58.5029 301.868 58.3115 301.868 58.0312V49.6743L298.382 50.0845V50.7202L299.182 50.915C299.476 50.9834 299.66 51.0723 299.735 51.1816C299.811 51.2842 299.848 51.4722 299.848 51.7456V57.8159C299.657 58.1372 299.363 58.4141 298.966 58.6465C298.577 58.8721 298.108 58.9849 297.562 58.9849C296.789 58.9849 296.188 58.7627 295.757 58.3184C295.333 57.8672 295.121 57.2041 295.121 56.3291V49.6743Z" fill="#F5F5F5"/>
<defs>
<clipPath id="clip0_146_387">
<rect width="356.742" height="41.1626" fill="white"/>
</clipPath>
</defs>
</svg>
